<svg id="_x33_0" enable-background="new 0 0 64 64" height="512" viewBox="0 0 64 64" width="512" xmlns="http://www.w3.org/2000/svg"><g><g><g><path d="m32 56.068-3.515-1.318c-3.281-1.23-5.485-4.412-5.485-7.916 0-2.073.759-4.067 2.136-5.616l6.864-7.723 6.864 7.723c1.377 1.549 2.136 3.543 2.136 5.616 0 3.504-2.204 6.686-5.485 7.916z" fill="#f0bc5e"/></g></g><g><path d="m20 12v4c0 1.654 1.346 3 3 3h3v-2h-3c-.552 0-1-.448-1-1v-4c0-.552.448-1 1-1h3v-2h-3c-1.654 0-3 1.346-3 3z"/><path d="m33 9h-2c-1.654 0-3 1.346-3 3v4c0 1.654 1.346 3 3 3h2c1.654 0 3-1.346 3-3v-4c0-1.654-1.346-3-3-3zm1 7c0 .552-.448 1-1 1h-2c-.552 0-1-.448-1-1v-4c0-.552.448-1 1-1h2c.552 0 1 .448 1 1z"/><path d="m42 13h-4v2h4v2h-2c-1.103 0-2 .897-2 2v2c0 1.103.897 2 2 2h4v-2h-4v-2h2c1.103 0 2-.897 2-2v-2c0-1.103-.897-2-2-2z"/><path d="m35.293 46.293-2.293 2.293v-9.586h-2v6.586l-2.293-2.293-1.414 1.414 3.707 3.707v10.586h2v-7.586l3.707-3.707z"/><path d="m56.789 16.209c.125-.728.211-1.464.211-2.209 0-7.168-5.832-13-13-13-3.289 0-6.374 1.204-8.78 3.409-2.937-2.205-6.532-3.409-10.22-3.409-8.661 0-15.893 6.544-16.869 15.049-4.004.435-7.131 3.834-7.131 7.951 0 4.411 3.589 8 8 8h10.586l-9.586 9.586c-.645.644-1 1.502-1 2.414s.355 1.77 1 2.414l.586.586c.971.971 2.487 1.209 3.727.717l1.486 12.634c.179 1.51 1.46 2.649 2.979 2.649h26.443c1.52 0 2.801-1.139 2.979-2.649l1.484-12.613c.412.171.857.262 1.316.262.912 0 1.77-.355 2.414-1l.586-.586c.645-.645 1-1.502 1-2.414s-.355-1.77-1-2.414l-9.586-9.586h10.586c4.411 0 8-3.589 8-8 0-3.795-2.659-6.975-6.211-7.791zm-10.574 43.907c-.06.504-.486.884-.993.884h-26.444c-.507 0-.934-.38-.993-.884l-1.63-13.857 15.845-15.845 15.845 15.845zm6.785-16.116c0 .378-.147.732-.414 1l-.586.586c-.535.533-1.465.533-2 0l-17.293-17.293c-.195-.195-.451-.293-.707-.293s-.512.098-.707.293l-17.293 17.293c-.535.533-1.465.533-2 0l-.586-.586c-.267-.268-.414-.622-.414-1s.147-.732.414-1l18.465-18.465c1.17-1.17 3.072-1.17 4.242 0l18.465 18.465c.267.268.414.622.414 1zm2-14h-12.586l-6.879-6.879c-1.949-1.949-5.121-1.949-7.07 0l-6.879 6.879h-12.586c-3.309 0-6-2.691-6-6s2.691-6 6-6 6 2.691 6 6h2c0-4.025-2.99-7.355-6.864-7.91.944-7.412 7.284-13.09 14.864-13.09 3.523 0 6.949 1.245 9.647 3.507l.72.603.646-.68c2.108-2.212 4.944-3.43 7.987-3.43 6.065 0 11 4.935 11 11 0 .679-.083 1.349-.205 2.01-4.316.111-7.795 3.648-7.795 7.99h2c0-3.309 2.691-6 6-6s6 2.691 6 6-2.691 6-6 6z"/></g></g></svg>