<?xml version="1.0" standalone="no"?>
<!DOCTYPE svg PUBLIC "-//W3C//DTD SVG 20010904//EN"
 "http://www.w3.org/TR/2001/REC-SVG-20010904/DTD/svg10.dtd">
<svg version="1.0" xmlns="http://www.w3.org/2000/svg"
 width="228.000000pt" height="266.000000pt" viewBox="0 0 228.000000 266.000000"
 preserveAspectRatio="xMidYMid meet">
<metadata>
Created by potrace 1.16, written by Peter Selinger 2001-2019
</metadata>
<g transform="translate(0.000000,266.000000) scale(0.100000,-0.100000)"
fill="#000000" stroke="none">
<path d="M862 2599 c-24 -12 -50 -32 -59 -45 -8 -13 -24 -24 -34 -24 -11 0
-39 -9 -64 -21 -33 -15 -49 -32 -65 -63 -11 -23 -20 -47 -20 -54 0 -6 -13 -26
-30 -44 -16 -18 -30 -38 -30 -45 0 -7 -13 -21 -30 -32 -16 -10 -27 -21 -23
-24 3 -4 -1 -7 -10 -7 -9 0 -26 -18 -37 -41 -17 -32 -21 -56 -19 -112 2 -42
-2 -81 -9 -94 -20 -36 -15 -143 8 -188 12 -24 20 -59 20 -90 0 -77 15 -116 57
-149 21 -17 42 -36 46 -43 4 -7 17 -13 27 -13 11 0 35 -15 54 -32 49 -47 64
-58 76 -58 5 0 10 -10 10 -22 1 -38 33 -91 69 -115 75 -51 168 -54 244 -9 l41
25 29 -25 c36 -30 95 -32 187 -5 82 23 150 51 150 60 0 4 19 18 43 31 57 32
159 137 187 194 13 25 27 46 31 46 24 0 79 226 79 325 0 81 -26 216 -53 280
-53 123 -172 259 -271 311 -28 15 -53 30 -56 35 -11 17 -126 50 -192 56 -55 5
-72 2 -100 -14 -33 -19 -34 -19 -68 0 -54 30 -136 33 -188 6z m168 -88 l41
-40 -3 -538 -3 -538 -38 -39 c-46 -47 -88 -58 -148 -39 -77 25 -112 123 -73
202 15 31 77 71 109 71 11 0 15 10 15 36 l0 37 -42 -7 c-24 -4 -44 -11 -46
-16 -2 -6 -10 -10 -17 -10 -21 0 -82 -75 -90 -111 l-7 -33 -24 28 c-47 54 -21
146 46 161 26 6 30 11 30 41 0 27 -4 34 -20 34 -11 0 -20 -4 -20 -9 0 -5 -14
-11 -30 -15 -37 -7 -77 -47 -85 -87 -4 -16 -11 -29 -17 -29 -6 0 -8 -7 -4 -15
12 -31 -35 10 -55 47 -30 58 -25 110 13 155 18 21 33 40 35 42 2 2 20 7 40 10
34 6 38 10 41 40 l3 33 -48 -7 c-51 -7 -107 -36 -122 -63 -13 -24 -23 -10 -28
41 -5 44 17 107 37 107 15 0 12 34 -5 56 -22 29 -19 81 8 110 l24 25 25 -39
c19 -28 37 -42 68 -51 48 -14 64 -6 58 30 -3 19 -29 42 -75 65 -24 11 -15 65
15 91 47 42 121 15 122 -44 0 -19 6 -23 30 -23 28 0 30 3 30 35 0 19 1 35 3
35 1 0 20 -9 42 -20 22 -11 54 -20 72 -20 29 0 33 3 33 28 0 25 -5 29 -44 40
-32 8 -50 20 -62 42 -10 16 -22 30 -26 30 -4 0 -8 19 -8 41 0 34 6 48 38 79
20 20 44 40 52 43 30 12 71 -3 110 -42z m190 29 c0 -5 8 -10 18 -10 26 0 141
-40 178 -62 18 -10 35 -25 38 -33 3 -8 12 -15 19 -15 8 0 46 -35 85 -77 51
-55 78 -96 97 -143 15 -36 34 -80 43 -99 14 -27 17 -64 17 -178 0 -85 -4 -147
-10 -151 -6 -4 -16 -25 -24 -47 -32 -94 -66 -150 -135 -220 -77 -79 -126 -114
-196 -141 -25 -10 -47 -21 -51 -26 -8 -12 -110 -29 -131 -22 -11 3 -23 17 -29
31 -5 14 -9 259 -9 588 l0 563 23 26 c21 25 67 36 67 16z"/>
<path d="M1260 2413 c-25 -9 -40 -35 -40 -68 0 -44 20 -66 67 -72 52 -7 83 20
83 72 0 58 -50 89 -110 68z"/>
<path d="M1416 2245 c-17 -25 -21 -81 -8 -102 11 -18 64 -35 89 -28 23 5 53
51 53 80 0 9 -7 29 -15 45 -14 26 -21 30 -59 30 -35 0 -47 -5 -60 -25z"/>
<path d="M1270 2160 l0 -80 -55 0 -55 0 0 -41 0 -41 66 4 c94 6 104 20 104
144 l0 94 -30 0 -30 0 0 -80z"/>
<path d="M1550 1975 l0 -185 35 0 35 0 0 185 0 185 -35 0 -35 0 0 -185z"/>
<path d="M1440 2046 c0 -71 -11 -76 -156 -76 l-124 0 0 -35 0 -35 138 0 c147
1 150 2 190 57 16 23 22 46 22 83 l0 50 -35 0 c-35 0 -35 0 -35 -44z"/>
<path d="M1160 1826 l0 -35 53 -3 52 -3 3 -87 3 -88 29 0 30 0 0 100 c0 96 -1
102 -26 125 -22 21 -37 25 -85 25 l-59 0 0 -34z"/>
<path d="M1440 1735 l0 -125 35 0 35 0 0 125 0 125 -35 0 -35 0 0 -125z"/>
<path d="M1253 1580 c-24 -10 -40 -64 -28 -100 13 -41 92 -53 126 -19 17 17
20 29 16 62 -8 61 -51 82 -114 57z"/>
<path d="M730 480 l0 -150 35 0 35 0 0 60 0 60 60 0 60 0 0 -60 0 -60 35 0 35
0 0 150 0 150 -35 0 -35 0 0 -60 0 -60 -60 0 -60 0 0 60 0 60 -35 0 -35 0 0
-150z"/>
<path d="M1030 519 c0 -126 12 -158 66 -184 41 -19 77 -19 120 1 53 25 64 57
64 184 l0 110 -35 0 -35 0 0 -103 c0 -116 -9 -139 -55 -139 -46 0 -55 23 -55
139 l0 103 -35 0 -35 0 0 -111z"/>
<path d="M1320 480 l0 -150 89 0 c82 0 90 2 115 26 32 33 35 86 6 111 -18 15
-18 19 -4 34 10 11 14 31 12 56 -4 52 -45 73 -145 73 l-73 0 0 -150z"/>
</g>
</svg>
