<svg height="512pt" viewBox="0 0 512 512.00018" width="512pt" xmlns="http://www.w3.org/2000/svg"><path d="m14.117188 340c-9.136719-26.316406-14.117188-54.574219-14.117188-84 0-141.269531 115.519531-256.425781 256.789062-256 141.023438.425781 255.210938 114.878906 255.210938 256 0 26.554688-4.054688 52.160156-11.5625 76.246094-1.445312 4.628906-5.773438 7.753906-10.625 7.753906zm0 0" fill="#314dc8"/><path d="m437.046875 395h-380.210937c-10.183594 0-19.535157-5.542969-24.5-14.4375-8.871094-15.886719-16.109376-32.8125-21.457032-50.5625h29.121094v-130c0-5.742188 4.839844-10.355469 10.667969-9.976562 5.3125.34375 9.332031 4.992187 9.332031 10.320312v129.65625h20v-70c0-5.523438 4.476562-10 10-10h10v-20c0-5.523438 4.476562-10 10-10h10v-41.714844c-11.652344-4.117187-20-15.222656-20-28.285156s8.347656-24.167969 20-28.285156v-91.714844c0-5.742188 4.839844-10.355469 10.667969-9.976562 5.3125.34375 9.332031 4.992187 9.332031 10.320312v91.371094c11.652344 4.117187 20 15.222656 20 28.285156s-8.347656 24.167969-20 28.285156v41.714844h20v-20.527344c0-5.523437 4.476562-10 10-10h40c5.523438 0 10 4.476563 10 10v130.527344h110v-200c0-5.742188 4.839844-10.355469 10.664062-9.976562 5.316407.34375 9.335938 4.992187 9.335938 10.320312v129.65625h80c5.523438 0 10 4.476562 10 10v50h20v-190c0-5.742188 4.839844-10.355469 10.664062-9.976562 5.316407.34375 9.335938 4.992187 9.335938 10.320312v199.65625h21.125c-3.25 10.773438-7.191406 21.242188-11.773438 31.359375-9.285156 20.515625-29.789062 33.640625-52.304687 33.640625zm0 0" fill="#172a7d"/><path d="m300 431.238281v-241.238281c0-5.523438 4.476562-10 10-10h60c5.523438 0 10 4.476562 10 10v20h30c5.523438 0 10 4.476562 10 10v211.238281zm0 0" fill="#08a8f0"/><path d="m300 431.238281v-241.238281c0-5.523438 4.476562-10 10-10h20c-5.523438 0-10 4.476562-10 10v241.238281zm0 0" fill="#028fce"/><path d="m360 234.828125v145.242187c0 4.992188-3.707031 9.21875-8.65625 9.828126-.070312.007812-.132812.019531-.203125.027343-5.914063.726563-11.140625-3.871093-11.140625-9.828125v-145.269531c0-5.46875 4.433594-9.902344 9.898438-9.902344h.199218c5.46875 0 9.902344 4.433594 9.902344 9.902344zm30.101562-9.902344h-.203124c-5.464844 0-9.898438 4.433594-9.898438 9.902344v145.269531c0 5.957032 5.226562 10.554688 11.140625 9.828125.070313-.007812.132813-.019531.203125-.027343 4.949219-.609376 8.65625-4.835938 8.65625-9.828126v-145.242187c0-5.46875-4.433594-9.902344-9.898438-9.902344zm0 0" fill="#62dafa"/><path d="m180 220v217.867188c0 6.515624-6.140625 11.3125-12.453125 9.699218-18.015625-4.601562-35.222656-10.402344-51.445313-17.257812-3.699218-1.5625-6.101562-5.195313-6.101562-9.214844v-201.09375c0-5.523438 4.476562-10 10-10h50c5.523438 0 10 4.476562 10 10zm0 0" fill="#6c7fd7"/><path d="m489.960938 360.007812c-38.074219 85.523438-121.613282 146.316407-219.945313 151.617188v-151.617188zm-319.960938-150.007812h-30c-5.523438 0-10 4.476562-10 10v201.09375c0 4.015625 2.402344 7.652344 6.101562 9.214844 13.09375 5.535156 26.84375 10.367187 41.128907 14.453125 1.695312-1.78125 2.769531-4.183594 2.769531-6.894531v-217.867188c0-5.523438-4.476562-10-10-10zm0 0" fill="#8694dd"/><path d="m280.019531 420h172.558594c-5.839844 6.996094-12.050781 13.667969-18.59375 20h-153.964844zm0-40v20h187.675781c4.402344-6.460938 8.511719-13.136719 12.320313-20zm0 100h99.996094c10.714844-5.945312 20.957031-12.632812 30.660156-20h-130.65625zm0 0" fill="#6c7fd7"/><path d="m352 310v183.390625c-29.648438 12.003906-62.046875 18.609375-96 18.609375s-66.351562-6.605469-96-18.609375v-183.390625c0-5.523438 4.476562-10 10-10h30v-50c0-5.523438 4.476562-10 10-10h36v-70c0-5.523438 4.476562-10 10-10s10 4.476562 10 10v70h36c5.523438 0 10 4.476562 10 10v50h30c5.523438 0 10 4.476562 10 10zm0 0" fill="#0ed1b2"/><path d="m210 300h-10v-50c0-5.523438 4.476562-10 10-10h20c-5.523438 0-10 4.476562-10 10v40c0 5.523438-4.476562 10-10 10zm121.53125 80c5.644531 0 10.21875-4.476562 10.21875-10s-4.574219-10-10.21875-10h-141.53125c-5.523438 0-10-4.476562-10-10s4.476562-10 10-10h141.53125c5.644531 0 10.21875-4.476562 10.21875-10s-4.574219-10-10.21875-10h-141.53125c-5.523438 0-10-4.476562-10-10s4.476562-10 10-10h-20c-5.523438 0-10 4.476562-10 10v183.371094c29.648438 12.003906 62.046875 18.628906 96 18.628906 3.351562 0 6.679688-.082031 10-.210938-12.070312-.464843-23.925781-1.769531-35.507812-3.847656-4.792969-.863281-4.140626-7.941406.726562-7.941406h100.3125c5.644531 0 10.21875-4.476562 10.21875-10s-4.574219-10-10.21875-10h-141.53125c-5.523438 0-10-4.476562-10-10s4.476562-10 10-10h141.53125c5.644531 0 10.21875-4.476562 10.21875-10s-4.574219-10-10.21875-10h-141.53125c-5.523438 0-10-4.476562-10-10s4.476562-10 10-10h141.53125c5.644531 0 10.21875-4.476562 10.21875-10s-4.574219-10-10.21875-10h-141.53125c-5.523438 0-10-4.476562-10-10s4.476562-10 10-10zm0 0" fill="#0ab59e"/><path d="m330 330c0 5.523438-4.476562 10-10 10h-12c-5.523438 0-10-4.476562-10-10s4.476562-10 10-10h12c5.523438 0 10 4.476562 10 10zm-60 30h-12c-5.523438 0-10 4.476562-10 10s4.476562 10 10 10h12c5.523438 0 10-4.476562 10-10s-4.476562-10-10-10zm0 40h-12c-5.523438 0-10 4.476562-10 10s4.476562 10 10 10h12c5.523438 0 10-4.476562 10-10s-4.476562-10-10-10zm-50 80h-12c-5.523438 0-10 4.476562-10 10s4.476562 10 10 10h12c5.523438 0 10-4.476562 10-10s-4.476562-10-10-10zm0 0" fill="#c7eefd"/><path d="m280 330c0 5.523438-4.476562 10-10 10h-12c-5.523438 0-10-4.476562-10-10s4.476562-10 10-10h12c5.523438 0 10 4.476562 10 10zm-60-10h-12c-5.523438 0-10 4.476562-10 10s4.476562 10 10 10h12c5.523438 0 10-4.476562 10-10s-4.476562-10-10-10zm0 40h-12c-5.523438 0-10 4.476562-10 10s4.476562 10 10 10h12c5.523438 0 10-4.476562 10-10s-4.476562-10-10-10zm88 20h12c5.523438 0 10-4.476562 10-10s-4.476562-10-10-10h-12c-5.523438 0-10 4.476562-10 10s4.476562 10 10 10zm-88 20h-12c-5.523438 0-10 4.476562-10 10s4.476562 10 10 10h12c5.523438 0 10-4.476562 10-10s-4.476562-10-10-10zm100 0h-12c-5.523438 0-10 4.476562-10 10s4.476562 10 10 10h12c5.523438 0 10-4.476562 10-10s-4.476562-10-10-10zm-50 40h-12c-5.523438 0-10 4.476562-10 10s4.476562 10 10 10h12c5.523438 0 10-4.476562 10-10s-4.476562-10-10-10zm-50 0h-12c-5.523438 0-10 4.476562-10 10s4.476562 10 10 10h12c5.523438 0 10-4.476562 10-10s-4.476562-10-10-10zm100 0h-12c-5.523438 0-10 4.476562-10 10s4.476562 10 10 10h12c5.523438 0 10-4.476562 10-10s-4.476562-10-10-10zm-50 40h-12c-5.523438 0-10 4.476562-10 10s4.476562 10 10 10h12c5.523438 0 10-4.476562 10-10s-4.476562-10-10-10zm50 0h-12c-5.523438 0-10 4.476562-10 10s4.476562 10 10 10h12c5.523438 0 10-4.476562 10-10s-4.476562-10-10-10zm0 0" fill="#89e9d9"/><path d="m49.988281 340.011719c0-5.523438 4.480469-10 10-10h120c5.523438 0 10 4.476562 10 10v163.390625c-56.878906-15.132813-105.96875-49.355469-140-95.398438zm0 0" fill="#4f66cf"/><path d="m90 359.929688v87.839843c0 1.003907-.136719 1.9375-.375 2.804688-6.867188-5.878907-13.417969-12.113281-19.625-18.679688v-71.964843c0-5.464844 4.433594-9.898438 9.902344-9.898438h.195312c5.46875-.003906 9.902344 4.433594 9.902344 9.898438zm30.097656-9.902344h-.195312c-5.46875 0-9.902344 4.433594-9.902344 9.902344v106.378906c6.460938 4.492187 13.128906 8.703125 20 12.59375v-118.972656c0-5.464844-4.433594-9.902344-9.902344-9.902344zm40 0h-.195312c-5.46875 0-9.902344 4.433594-9.902344 9.902344v129.164062c6.527344 2.96875 13.195312 5.675781 20 8.101562v-137.265624c0-5.464844-4.433594-9.902344-9.902344-9.902344zm0 0" fill="#8694dd"/><path d="m32.023438 380h97.976562c5.523438 0 10 4.476562 10 10v94.265625c-45.566406-23.203125-83.226562-59.648437-107.976562-104.265625zm0 0" fill="#08a8f0"/><path d="m120 450c0 5.523438-4.476562 10-10 10h-8.65625c-8.167969-6.203125-15.953125-12.882812-23.3125-20h31.96875c5.523438 0 10 4.476562 10 10zm0-40c0-5.523438-4.476562-10-10-10h-65.675781c4.714843 6.917969 9.761719 13.589844 15.113281 20h50.5625c5.523438 0 10-4.476562 10-10zm0 0" fill="#62dafa"/><path d="m291.355469 125.800781c3.90625 3.90625 3.90625 10.238281 0 14.144531-3.90625 3.902344-10.238281 3.902344-14.140625 0-11.699219-11.699218-30.730469-11.699218-42.429688 0-3.902344 3.902344-10.234375 3.902344-14.140625 0-3.90625-3.90625-3.90625-10.238281 0-14.144531 19.496094-19.492187 51.214844-19.492187 70.710938 0zm-91.925781-35.355469c-3.902344 3.90625-3.902344 10.238282 0 14.144532 3.90625 3.90625 10.238281 3.90625 14.144531 0 23.394531-23.394532 61.457031-23.394532 84.851562 0 3.90625 3.90625 10.238281 3.90625 14.140625 0 3.90625-3.90625 3.90625-10.238282 0-14.144532-31.191406-31.191406-81.941406-31.191406-113.136718 0zm141.421874-35.355468c-46.785156-46.785156-122.914062-46.785156-169.703124 0-3.90625 3.90625-3.90625 10.238281 0 14.144531 3.902343 3.902344 10.234374 3.902344 14.140624 0 38.988282-38.992187 102.429688-38.992187 141.421876 0 3.902343 3.902344 10.234374 3.902344 14.140624 0 3.90625-3.90625 3.90625-10.238281 0-14.144531zm0 0" fill="#c7eefd"/></svg>